<svg height="512" width="512" xmlns="http://www.w3.org/2000/svg">
    <!-- Icon from: https://game-icons.net/1x1/lorc/double-ringed-orb.html -->
    <defs>
        <radialGradient id="planet" gradientUnits="userSpaceOnUse" cx="256" cy="64" r="384">
            <stop offset="0%" stop-color="#9700C0" />
            <stop offset="10%" stop-color="#800080" />
            <stop offset="40%" stop-color="#221329" />
            <stop offset="80%" stop-color="#000" />
        </radialGradient>
        <radialGradient id="front-stroke-fade" cx="256" cy="256" r="256">
            <stop offset="0%" stop-opacity="0" />
            <stop offset="100%" stop-opacity="1" />
        </radialGradient>
        <linearGradient id="front-stroke" x1="0" y1="0" x2="1" y2="1">
            <stop offset="0%" stop-color="#FFFF7E" />
            <stop offset="100%" stop-color="#FF5A01" />
        </linearGradient>
        <linearGradient id="back-stroke" gradientUnits="userSpaceOnUse" x1="512" y1="128" x2="0" y2="384">
            <stop offset="0%" stop-color="#3CD4FC" />
            <stop offset="80%" stop-color="#56C000" />
        </linearGradient>
    </defs>
    <g class="" style="" transform="translate(0,0)">
        <g>
            <path
                d="M254.777 93.275C196.295 93.275 149.082 140.485 149.082 198.971C149.082 257.458 196.295 304.669 254.777 304.669C313.259 304.669 360.473 257.459 360.473 198.972C360.473 140.492 313.259 93.277 254.777 93.277Z"
                fill="url(#planet)" fill-opacity="1" />
            <path
                d="M114.063 156.865C-40.9 155.67 -21.26 276.118 227.043 357.748C452.997 432.028 546.083 368.372 466.523 287.775C466.11 287.225 465.683 286.678 465.246 286.135C460.491 290.089 455.536 294.05 450.296 298.015C454.783 303.528 457.434 309.099 458 314.025C458.713 320.225 457.1 325.825 451.014 332.002C445.174 337.929 434.764 343.982 418.707 348.492C394.633 354.19 360.28 354.092 316.42 345.836L316.525 345.796C314.372 345.416 312.225 345.009 310.08 344.598C288.205 340.18 264.076 333.793 237.762 325.143C167.8 302.143 119.708 275.437 91.699 250.207C91.945 250.017 92.179 249.827 92.427 249.639C92.157 249.805 91.895 249.972 91.627 250.139C38.312 202.059 57.945 159.359 138.185 157.939C129.725 157.274 121.683 156.923 114.061 156.864Z"
                class="selected" fill="url(#front-stroke)" fill-opacity="1" />
            <path
                d="M395.488 156.865C387.868 156.925 379.825 157.275 371.365 157.941C451.605 159.361 471.225 202.056 417.902 250.134C417.638 249.969 417.389 249.804 417.122 249.64C417.366 249.824 417.594 250.008 417.834 250.193C391.817 273.627 348.477 298.337 286.379 320.166C307.569 325.579 329.199 329.529 351.194 331.806C386.024 316.681 414.219 300.89 436.104 285.252C436.114 285.259 436.124 285.266 436.136 285.272C436.658 284.886 437.166 284.499 437.683 284.112C528.185 218.547 507.369 156.002 395.487 156.865Z"
                class="" fill="url(#back-stroke)" fill-opacity="1" />
            <path
                d="M44.54 286.27C-29.824 359.82 39.073 419.938 221.223 375.395C198.379 367.832 176.333 359.565 155.383 351.201C129.987 353.517 108.973 352.491 92.541 348.855C75.739 344.311 64.928 338.09 58.931 332.003C52.845 325.827 51.234 320.227 51.946 314.026C52.506 309.146 55.116 303.631 59.528 298.166C54.275 294.198 49.308 290.231 44.542 286.272Z"
                class="" fill="url(#back-stroke)" fill-opacity="1" />
        </g>
    </g>
</svg>
